<svg width="26" height="26" viewBox="0 0 26 26" fill="none" xmlns="http://www.w3.org/2000/svg">
<path d="M16.7051 13.0001C16.7051 11.9774 16.3498 11.1021 15.6391 10.3741C14.9285 9.64605 14.0531 9.28205 13.0131 9.28205C11.9731 9.28205 11.0978 9.64605 10.3871 10.3741C9.67646 11.1021 9.31246 11.9774 9.29513 13.0001C9.2778 14.0227 9.6418 14.8981 10.3871 15.6261C11.1325 16.3541 12.0078 16.7181 13.0131 16.7181C14.0185 16.7181 14.8938 16.3541 15.6391 15.6261C16.3845 14.8981 16.7398 14.0227 16.7051 13.0001ZM18.7071 13.0001C18.7071 14.5774 18.1525 15.9294 17.0431 17.0561C15.9338 18.1827 14.5905 18.7374 13.0131 18.7201C11.4358 18.7027 10.0838 18.1481 8.95713 17.0561C7.83046 15.9641 7.2758 14.6121 7.29313 13.0001C7.31046 11.3881 7.86513 10.0361 8.95713 8.94405C10.0491 7.85205 11.4011 7.29739 13.0131 7.28005C14.6251 7.26272 15.9685 7.81739 17.0431 8.94405C18.1178 10.0707 18.6725 11.4227 18.7071 13.0001ZM20.2931 7.04605C20.2931 7.41005 20.1631 7.72205 19.9031 7.98205C19.6431 8.24205 19.3225 8.37205 18.9411 8.37205C18.5598 8.37205 18.2478 8.24205 18.0051 7.98205C17.7625 7.72205 17.6325 7.41005 17.6151 7.04605C17.5978 6.68205 17.7278 6.37005 18.0051 6.11005C18.2825 5.85005 18.5945 5.72005 18.9411 5.72005C19.2878 5.72005 19.6085 5.85005 19.9031 6.11005C20.1978 6.37005 20.3278 6.68205 20.2931 7.04605ZM13.0131 3.84805C12.9438 3.84805 12.5711 3.84805 11.8951 3.84805H10.3611C10.0145 3.84805 9.54646 3.86539 8.95713 3.90005C8.3678 3.93472 7.8738 3.97805 7.47513 4.03005C7.07646 4.08205 6.7298 4.17739 6.43513 4.31605C5.9498 4.50672 5.52513 4.78405 5.16113 5.14805C4.79713 5.51205 4.51113 5.93672 4.30313 6.42205C4.19913 6.69939 4.11246 7.04605 4.04313 7.46205C3.9738 7.87805 3.9218 8.38072 3.88713 8.97005C3.85246 9.55939 3.8438 10.0187 3.86113 10.3481C3.87846 10.6774 3.87846 11.1887 3.86113 11.8821C3.8438 12.5754 3.8438 12.9481 3.86113 13.0001C3.87846 13.0521 3.87846 13.4247 3.86113 14.1181C3.8438 14.8114 3.8438 15.3227 3.86113 15.6521C3.87846 15.9814 3.88713 16.4407 3.88713 17.0301C3.88713 17.6194 3.93913 18.1221 4.04313 18.5381L4.30313 19.5781C4.51113 20.0634 4.79713 20.4881 5.16113 20.8521C5.52513 21.2161 5.9498 21.4934 6.43513 21.6841C6.71246 21.7881 7.05913 21.8834 7.47513 21.9701C7.89113 22.0567 8.38513 22.1001 8.95713 22.1001C9.52913 22.1001 9.99713 22.1174 10.3611 22.1521C10.7251 22.1867 11.2365 22.1867 11.8951 22.1521C12.5538 22.1174 12.9265 22.1174 13.0131 22.1521C13.0998 22.1867 13.4638 22.1867 14.1051 22.1521C14.7465 22.1174 15.2578 22.1174 15.6391 22.1521C16.0205 22.1867 16.4885 22.1694 17.0431 22.1001C17.5978 22.0307 18.1005 21.9874 18.5511 21.9701C19.0018 21.9527 19.3398 21.8574 19.5651 21.6841C20.0505 21.4934 20.4838 21.2161 20.8651 20.8521C21.2465 20.4881 21.5238 20.0634 21.6971 19.5781C21.8011 19.3007 21.8878 18.9541 21.9571 18.5381C22.0265 18.1221 22.0785 17.6194 22.1131 17.0301C22.1478 16.4407 22.1565 15.9814 22.1391 15.6521C22.1218 15.3227 22.1218 14.8114 22.1391 14.1181C22.1565 13.4247 22.1565 13.0521 22.1391 13.0001C22.1218 12.9481 22.1218 12.5754 22.1391 11.8821C22.1565 11.1887 22.1565 10.6774 22.1391 10.3481C22.1218 10.0187 22.1131 9.55939 22.1131 8.97005C22.1131 8.38072 22.0611 7.87805 21.9571 7.46205L21.6971 6.42205C21.5065 5.93672 21.2291 5.51205 20.8651 5.14805C20.5011 4.78405 20.0678 4.50672 19.5651 4.31605C19.2878 4.21205 18.9498 4.11672 18.5511 4.03005C18.1525 3.94339 17.6498 3.90005 17.0431 3.90005C16.4365 3.90005 15.9685 3.88272 15.6391 3.84805C15.3098 3.81339 14.7985 3.81339 14.1051 3.84805C13.4118 3.88272 13.0478 3.88272 13.0131 3.84805ZM24.1411 13.0001C24.1411 15.2187 24.1151 16.7527 24.0631 17.6021C23.9765 19.6127 23.3785 21.1727 22.2691 22.2821C21.1598 23.3914 19.6085 23.9894 17.6151 24.0761C16.7485 24.1281 15.2145 24.1541 13.0131 24.1541C10.8118 24.1541 9.2778 24.1281 8.41113 24.0761C6.40046 23.9721 4.84046 23.3741 3.73113 22.2821C2.6218 21.1901 2.0238 19.6301 1.93713 17.6021C1.88513 16.7527 1.85913 15.2187 1.85913 13.0001C1.85913 10.7814 1.88513 9.24739 1.93713 8.39805C2.0238 6.38739 2.6218 4.82738 3.73113 3.71805C4.84046 2.60872 6.40046 2.01072 8.41113 1.92405C9.26046 1.87205 10.7945 1.84605 13.0131 1.84605C15.2318 1.84605 16.7658 1.87205 17.6151 1.92405C19.6258 2.02805 21.1771 2.62605 22.2691 3.71805C23.3611 4.81005 23.9591 6.37005 24.0631 8.39805C24.1151 9.24739 24.1411 10.7814 24.1411 13.0001Z" fill="#FABF1E"/>
</svg>
