<svg width="20" height="23" viewBox="0 0 20 23" fill="none" xmlns="http://www.w3.org/2000/svg">
<path d="M9.56743 0C7.07207 0 4.87221 0.870093 2.96786 2.61028C1.06351 4.35046 0.111328 6.71449 0.111328 9.70236C0.111328 12.0992 1.04709 14.4632 2.91861 16.7944C4.79013 19.1256 6.56315 21.03 8.23767 22.5075C8.43467 22.6717 8.64809 22.7948 8.87792 22.8769C9.10776 22.959 9.33759 23 9.56743 23C9.79727 23 10.0271 22.959 10.2569 22.8769C10.4868 22.7948 10.7002 22.6717 10.8972 22.5075C12.5717 21.03 14.3447 19.1256 16.2163 16.7944C18.0878 14.4632 19.0235 12.0992 19.0235 9.70236C19.0235 6.71449 18.0714 4.35046 16.167 2.61028C14.2626 0.870093 12.0628 0 9.56743 0ZM9.56743 12.3126C8.87792 12.3126 8.29512 12.0746 7.81903 11.5985C7.34295 11.1224 7.1049 10.5396 7.1049 9.85011C7.1049 9.1606 7.34295 8.5778 7.81903 8.10171C8.29512 7.62562 8.87792 7.38758 9.56743 7.38758C10.2569 7.38758 10.8397 7.62562 11.3158 8.10171C11.7919 8.5778 12.03 9.1606 12.03 9.85011C12.03 10.5396 11.7919 11.1224 11.3158 11.5985C10.8397 12.0746 10.2569 12.3126 9.56743 12.3126Z" fill="#FABF1E"/>
</svg>
