<svg width="26" height="26" viewBox="0 0 26 26" fill="none" xmlns="http://www.w3.org/2000/svg">
<g clip-path="url(#clip0_2128_125)">
<path d="M11.206 17.16C10.7554 19.4133 10.2527 21.242 9.69804 22.646C9.14337 24.05 8.31137 25.168 7.20204 26C7.09804 24.7173 7.03737 23.6773 7.02004 22.88C7.00271 22.0827 7.09804 21.1293 7.30604 20.02C7.51404 18.9107 7.70471 18.0093 7.87804 17.316C8.05137 16.6227 8.27671 15.7647 8.55404 14.742C8.83137 13.7193 9.03937 12.8613 9.17804 12.168C8.76204 11.2667 8.59737 10.2613 8.68404 9.152C8.77071 8.04267 9.18671 7.124 9.93204 6.396C10.6774 5.668 11.5354 5.49467 12.506 5.876C13.1994 6.15333 13.5807 6.66467 13.65 7.41C13.7194 8.15533 13.6067 8.97867 13.312 9.88C13.0174 10.7813 12.74 11.674 12.48 12.558C12.22 13.442 12.1854 14.222 12.376 14.898C12.5667 15.574 13.1127 15.9987 14.014 16.172C15.1927 16.4147 16.2414 16.0853 17.16 15.184C18.0787 14.2827 18.72 13.1473 19.084 11.778C19.448 10.4087 19.5434 8.996 19.37 7.54C19.1967 6.084 18.7287 4.97467 17.966 4.212C16.8914 3.10267 15.5827 2.496 14.04 2.392C12.4974 2.288 11.0847 2.574 9.80204 3.25C8.51937 3.926 7.47937 4.94 6.68204 6.292C5.88471 7.644 5.60737 9.11733 5.85004 10.712C5.91937 11.0933 6.11004 11.544 6.42204 12.064C6.73404 12.584 6.91604 12.9913 6.96804 13.286C7.02004 13.5807 6.87271 14.1613 6.52604 15.028C3.99537 14.4387 2.78204 12.4453 2.88604 9.048C2.95537 6.656 3.86537 4.628 5.61604 2.964C7.36671 1.3 9.38604 0.329334 11.674 0.052002C14.5167 -0.259998 17.03 0.234001 19.214 1.534C21.398 2.834 22.646 4.732 22.958 7.228C23.4087 10.2787 22.8367 13.026 21.242 15.47C19.6474 17.914 17.4634 19.032 14.69 18.824C14.3087 18.7893 13.9447 18.7113 13.598 18.59C13.2514 18.4687 12.9914 18.356 12.818 18.252C12.6447 18.148 12.376 17.966 12.012 17.706C11.648 17.446 11.3794 17.264 11.206 17.16Z" fill="#FABF1E"/>
</g>
<defs>
<clipPath id="clip0_2128_125">
<rect width="26" height="26" fill="white" transform="matrix(1 0 0 -1 0 26)"/>
</clipPath>
</defs>
</svg>
